# Blender 4.5.0
# www.blender.org
mtllib pikachuparachute.mtl
o Mesh.003_rdmobj01
v -0.571925 0.070394 0.210431
v -0.626163 0.037919 0.100832
v -0.633118 0.158259 -0.017865
v -0.653415 0.017691 -0.205645
v -0.597841 0.011658 -0.380369
v -0.477310 0.135831 -0.499962
v -0.574961 0.267872 -0.315404
v -0.143920 0.348795 -0.505750
v -0.300838 0.345713 -0.478794
v -0.143920 0.428285 -0.404708
v -0.281495 0.423195 -0.392732
v -0.006344 0.423195 -0.392732
v 0.097504 0.415904 -0.341879
v 0.108325 0.448375 -0.225452
v -0.619934 0.250851 -0.164595
v -0.458035 0.347893 -0.392763
v -0.554303 0.338252 -0.256289
v -0.467560 0.403071 -0.260479
v -0.396165 0.448375 -0.225452
v -0.383897 0.468275 -0.108799
v -0.261465 0.488435 -0.007292
v -0.259986 0.492068 -0.127392
v -0.143920 0.500080 -0.129131
v -0.026375 0.488435 -0.007292
v -0.143920 0.498572 -0.008170
v -0.261338 0.419209 0.214385
v -0.399403 0.387712 0.192874
v -0.414526 0.239803 0.315507
v -0.500201 0.239852 0.245674
v -0.596548 0.148029 0.112095
v -0.261422 0.461977 0.111409
v -0.143920 0.428444 0.224916
v -0.262653 0.348037 0.297788
v -0.029601 0.151776 0.394244
v -0.385343 0.415904 -0.341879
v -0.272621 0.470487 -0.264738
v -0.143920 0.478305 -0.269984
v -0.015219 0.470487 -0.264738
v -0.027853 0.492068 -0.127392
v 0.111563 0.387712 0.192874
v 0.126686 0.239803 0.315507
v 0.212362 0.239852 0.245674
v 0.256476 0.146877 0.225770
v 0.284085 0.070394 0.210431
v -0.458946 -0.290369 0.313358
v 0.356925 0.144573 -0.179134
v 0.076212 -0.205891 0.421021
v 0.171106 -0.290369 0.313358
v -0.143920 0.064392 0.429628
v -0.143920 -0.038097 0.506746
v -0.143920 -0.007511 0.456050
v -0.029521 -0.018014 0.436504
v 0.181392 -0.105392 0.351760
v 0.080955 -0.125612 0.436008
v 0.345278 0.158259 -0.017865
v 0.308708 0.148029 0.112095
v 0.170195 0.347893 -0.392763
v 0.012998 0.345713 -0.478794
v 0.287121 0.267872 -0.315404
v -0.143920 0.472216 0.118638
v -0.026502 0.419209 0.214385
v -0.026418 0.461977 0.111409
v -0.025187 0.348037 0.297788
v -0.143920 0.357689 0.314329
v 0.306394 0.142464 -0.350331
v -0.258239 0.151776 0.394244
v -0.143920 0.260185 0.384063
v -0.143920 0.152765 0.416799
v -0.399454 0.323390 0.267082
v -0.668738 -0.112294 -0.047335
v -0.659387 -0.286572 -0.110057
v -0.557462 0.298975 0.074258
v -0.561899 0.254111 0.133546
v -0.469233 -0.105392 0.351760
v -0.232156 -0.326296 0.413084
v -0.644765 0.144573 -0.179134
v -0.661413 0.016457 -0.037362
v -0.664101 -0.141190 -0.226078
v 0.252461 -0.021417 0.268232
v 0.311623 -0.002450 0.186097
v -0.260559 0.255450 0.363033
v -0.258319 -0.018014 0.436504
v -0.079955 -0.046054 0.483954
v 0.173658 0.156581 0.299957
v 0.111615 0.323390 0.267082
v 0.274058 0.254111 0.133546
v 0.195194 0.329776 0.189952
v 0.373574 0.016457 -0.037362
v 0.377649 -0.124299 0.059142
v 0.362369 -0.041254 0.080206
v -0.055684 -0.326296 0.413084
v 0.365575 0.017691 -0.205645
v 0.307088 -0.137090 -0.396608
v 0.310001 0.011658 -0.380369
v -0.027281 0.255450 0.363033
v -0.398068 0.457150 -0.003528
v -0.447295 0.441477 -0.027274
v 0.319219 0.244841 -0.000287
v 0.269622 0.298975 0.074258
v -0.475634 0.411701 0.044889
v -0.401258 0.429758 0.095235
v -0.483034 0.329776 0.189952
v 0.206700 0.369355 0.107706
v 0.113419 0.429758 0.095235
v 0.110229 0.457150 -0.003528
v 0.096057 0.468275 -0.108799
v 0.179720 0.403071 -0.260479
v -0.541414 0.353299 0.046799
v -0.585164 0.314547 -0.015205
v -0.607059 0.244841 -0.000287
v -0.586368 0.314099 -0.093345
v -0.566822 0.346326 -0.146795
v -0.492007 0.401353 -0.170640
v 0.298528 0.314099 -0.093345
v 0.187794 0.411701 0.044889
v 0.159456 0.441477 -0.027274
v 0.160698 0.435098 -0.103655
v 0.204167 0.401353 -0.170640
v -0.594928 -0.137090 -0.396608
v -0.509328 -0.199646 -0.593315
v 0.048216 -0.179145 -0.675348
v -0.494540 0.369355 0.107706
v 0.195913 0.004919 -0.532107
v -0.448537 0.435098 -0.103655
v 0.266463 0.338251 -0.256290
v 0.332094 0.250851 -0.164595
v 0.278982 0.346325 -0.146796
v 0.253574 0.353299 0.046799
v 0.297324 0.314547 -0.015205
v -0.318963 0.130542 -0.584437
v 0.221487 -0.199646 -0.593315
v -0.143920 -0.163797 -0.726079
v -0.336056 -0.179145 -0.675348
v 0.039959 -0.003310 -0.614179
v -0.143920 -0.002800 -0.653059
v -0.143920 0.122824 -0.624625
v -0.327798 -0.003310 -0.614179
v -0.465439 0.261792 -0.450859
v -0.143920 -0.434926 0.333224
v -0.483753 0.004919 -0.532107
v -0.611467 -0.253824 -0.424832
v 0.022699 0.247308 -0.538027
v -0.343119 -0.413686 0.290022
v -0.237440 -0.424463 0.321328
v 0.162200 -0.392082 0.237320
v 0.323627 -0.253824 -0.424832
v 0.376261 -0.141190 -0.226078
v -0.310539 0.247308 -0.538027
v -0.143920 0.243341 -0.575883
v 0.031123 0.130542 -0.584437
v 0.189470 0.135831 -0.499962
v 0.177599 0.261792 -0.450859
v -0.050400 -0.424463 0.321328
v 0.055279 -0.413686 0.290022
v 0.380898 -0.112294 -0.047335
v -0.594234 0.142464 -0.350331
v -0.650075 -0.303016 -0.257267
v -0.612162 -0.322975 0.074553
v -0.541575 -0.363879 0.178006
v 0.362236 -0.303016 -0.257267
v 0.371547 -0.286572 -0.110057
v 0.324322 -0.322975 0.074553
v 0.253736 -0.363879 0.178006
v -0.143920 -0.229302 0.483167
v -0.051090 -0.223133 0.466132
v -0.048900 -0.182799 0.478046
v -0.051725 -0.138911 0.488985
v 0.015125 -0.134655 0.461840
v 0.044435 -0.081427 0.442651
v -0.236050 -0.082729 0.486094
v -0.207885 -0.046054 0.483954
v -0.332275 -0.081427 0.442651
v -0.302965 -0.134655 0.461840
v -0.368795 -0.125612 0.436008
v -0.315553 -0.176367 0.457072
v -0.236750 -0.223133 0.466132
v -0.364053 -0.205891 0.421021
v -0.349548 -0.312958 0.379074
v -0.236115 -0.138911 0.488985
v -0.238940 -0.182799 0.478046
v -0.143920 -0.094346 0.515297
v -0.111071 -0.137491 0.510314
v -0.176769 -0.137491 0.510314
v -0.143920 -0.187544 0.500634
v -0.143920 -0.331958 0.426630
v 0.061708 -0.312958 0.379074
v -0.051791 -0.082729 0.486094
v 0.027713 -0.176367 0.457072
v 0.212680 0.064902 0.292760
v 0.140669 0.058656 0.353263
v 0.176301 -0.041723 0.334877
v -0.500520 0.064902 0.292760
v -0.365921 0.155748 0.358988
v -0.345554 0.062456 0.386145
v -0.394255 -0.044577 0.384995
v -0.252780 0.062590 0.411042
v 0.057715 0.062456 0.386145
v 0.106415 -0.044577 0.384995
v -0.035059 0.062590 0.411042
v -0.540301 -0.021417 0.268232
v 0.078081 0.155748 0.358988
v -0.544316 0.146877 0.225770
v -0.461498 0.156581 0.299957
v -0.428509 0.058656 0.353263
v 0.181649 -0.184893 0.349469
v 0.278293 -0.162592 0.267095
v -0.566133 -0.162592 0.267095
v -0.557214 -0.263426 0.235138
v -0.464142 -0.041723 0.334877
v -0.556920 -0.086224 0.272577
v -0.650210 -0.041254 0.080206
v -0.665490 -0.124299 0.059142
v -0.662388 -0.197410 0.041779
v -0.641880 -0.132215 0.164075
v -0.634214 -0.232125 0.134514
v -0.657688 -0.238266 -0.026824
v 0.269080 -0.086224 0.272577
v 0.338322 0.037919 0.100832
v 0.333625 -0.058935 0.177375
v -0.469489 -0.184893 0.349469
v -0.621464 -0.058935 0.177375
v -0.599464 -0.002450 0.186097
v 0.369848 -0.238266 -0.026824
v 0.374548 -0.197410 0.041779
v 0.354040 -0.132215 0.164075
v 0.346374 -0.232125 0.134514
v -0.450039 -0.392082 0.237320
v 0.269374 -0.263426 0.235138
vn -0.8335 0.1753 0.5240
vn -0.9298 0.2257 0.2909
vn -0.9661 0.2069 0.1541
vn -0.9792 0.1002 -0.1764
vn -0.8915 0.1116 -0.4391
vn -0.6124 0.2703 -0.7429
vn -0.8225 0.3884 -0.4155
vn -0.0000 0.6594 -0.7518
vn -0.2616 0.6325 -0.7290
vn -0.0000 0.8695 -0.4940
vn -0.1876 0.8479 -0.4959
vn 0.1876 0.8479 -0.4959
vn 0.3453 0.8444 -0.4095
vn 0.3548 0.9161 -0.1866
vn -0.9363 0.3431 -0.0753
vn -0.5180 0.6430 -0.5641
vn -0.7315 0.6319 -0.2562
vn -0.5199 0.8182 -0.2455
vn -0.3548 0.9161 -0.1866
vn -0.3138 0.9483 -0.0469
vn -0.1437 0.9818 0.1244
vn -0.1309 0.9896 -0.0600
vn -0.0000 0.9978 -0.0657
vn 0.1437 0.9818 0.1244
vn -0.0000 0.9938 0.1111
vn -0.1862 0.8381 0.5127
vn -0.3788 0.7830 0.4934
vn -0.4661 0.3542 0.8108
vn -0.6984 0.3269 0.6367
vn -0.9131 0.2247 0.3401
vn -0.1676 0.9392 0.2996
vn -0.0000 0.8568 0.5156
vn -0.2152 0.6590 0.7207
vn 0.2470 0.2212 0.9434
vn -0.3453 0.8444 -0.4095
vn -0.1494 0.9590 -0.2410
vn -0.0000 0.9678 -0.2517
vn 0.1494 0.9590 -0.2410
vn 0.1309 0.9896 -0.0600
vn 0.3788 0.7830 0.4934
vn 0.4661 0.3542 0.8108
vn 0.6984 0.3269 0.6367
vn 0.7938 0.2389 0.5593
vn 0.8335 0.1753 0.5240
vn -0.5864 -0.4247 0.6897
vn 0.9822 0.1582 -0.1012
vn 0.4890 -0.3012 0.8186
vn 0.5864 -0.4247 0.6897
vn -0.0000 0.2402 0.9707
vn -0.0000 0.5547 0.8321
vn -0.0000 0.6153 0.7883
vn 0.3056 0.4418 0.8434
vn 0.6293 0.1198 0.7678
vn 0.5218 0.0681 0.8503
vn 0.9661 0.2069 0.1542
vn 0.9131 0.2247 0.3401
vn 0.5180 0.6430 -0.5641
vn 0.2616 0.6325 -0.7290
vn 0.8225 0.3884 -0.4155
vn -0.0000 0.9552 0.2960
vn 0.1862 0.8381 0.5127
vn 0.1676 0.9392 0.2996
vn 0.2152 0.6590 0.7207
vn -0.0000 0.6874 0.7263
vn 0.8717 0.1915 -0.4511
vn -0.2470 0.2212 0.9434
vn -0.0000 0.4365 0.8997
vn -0.0000 0.2215 0.9752
vn -0.3971 0.6008 0.6939
vn -0.9998 0.0099 0.0196
vn -0.9930 -0.1134 0.0318
vn -0.8247 0.4530 0.3387
vn -0.8495 0.3540 0.3911
vn -0.6293 0.1198 0.7678
vn -0.2226 -0.5605 0.7977
vn -0.9822 0.1582 -0.1012
vn -0.9874 0.1415 0.0710
vn -0.9787 0.0230 -0.2042
vn 0.7111 0.1711 0.6820
vn 0.8426 0.2076 0.4970
vn -0.2418 0.4216 0.8739
vn -0.3056 0.4418 0.8434
vn 0.3163 0.5525 0.7712
vn 0.6091 0.2228 0.7612
vn 0.3971 0.6008 0.6939
vn 0.8495 0.3540 0.3911
vn 0.6363 0.5882 0.4991
vn 0.9874 0.1415 0.0710
vn 0.9919 0.0317 0.1228
vn 0.9625 0.1691 0.2121
vn 0.2226 -0.5605 0.7977
vn 0.9792 0.1002 -0.1764
vn 0.9280 0.0892 -0.3618
vn 0.8915 0.1116 -0.4391
vn 0.2418 0.4216 0.8739
vn -0.2962 0.9416 0.1600
vn -0.5226 0.8512 0.0492
vn 0.9345 0.2973 0.1960
vn 0.8247 0.4530 0.3387
vn -0.5442 0.8093 0.2209
vn -0.3466 0.8810 0.3219
vn -0.6363 0.5882 0.4991
vn 0.6300 0.6773 0.3801
vn 0.3466 0.8810 0.3219
vn 0.2962 0.9416 0.1600
vn 0.3138 0.9483 -0.0469
vn 0.5199 0.8182 -0.2455
vn -0.7478 0.6155 0.2488
vn -0.8488 0.5148 0.1208
vn -0.9345 0.2973 0.1960
vn -0.8244 0.5643 0.0449
vn -0.7036 0.7082 0.0594
vn -0.5777 0.8135 -0.0665
vn 0.8614 0.5057 0.0479
vn 0.5424 0.8098 0.2238
vn 0.4928 0.8675 0.0676
vn 0.5181 0.8521 -0.0743
vn 0.5635 0.8209 -0.0921
vn -0.9280 0.0892 -0.3618
vn -0.6792 0.2567 -0.6876
vn 0.3342 0.3389 -0.8795
vn -0.6300 0.6773 0.3801
vn 0.6185 0.2581 -0.7422
vn -0.5487 0.8343 -0.0537
vn 0.7315 0.6319 -0.2562
vn 0.9363 0.3432 -0.0753
vn 0.7516 0.6578 -0.0503
vn 0.7484 0.6085 0.2637
vn 0.8475 0.5172 0.1194
vn -0.3236 0.2966 -0.8985
vn 0.6792 0.2567 -0.6876
vn -0.0000 0.4130 -0.9107
vn -0.3342 0.3389 -0.8795
vn 0.3248 0.2777 -0.9041
vn -0.0000 0.3026 -0.9531
vn -0.0000 0.2956 -0.9553
vn -0.3248 0.2777 -0.9041
vn -0.5625 0.4239 -0.7099
vn -0.0000 -0.6719 0.7407
vn -0.6185 0.2581 -0.7422
vn -0.9303 0.2053 -0.3040
vn 0.3001 0.4460 -0.8432
vn -0.3678 -0.6290 0.6849
vn -0.2241 -0.6567 0.7201
vn 0.5430 -0.5327 0.6491
vn 0.9303 0.2053 -0.3040
vn 0.9787 0.0230 -0.2042
vn -0.3001 0.4460 -0.8432
vn -0.0000 0.4611 -0.8873
vn 0.3236 0.2966 -0.8985
vn 0.6124 0.2703 -0.7429
vn 0.5625 0.4239 -0.7099
vn 0.2241 -0.6567 0.7201
vn 0.3678 -0.6290 0.6849
vn 0.9998 0.0099 0.0196
vn -0.8717 0.1915 -0.4511
vn -0.9817 -0.0005 -0.1904
vn -0.8898 -0.3766 0.2578
vn -0.6965 -0.4501 0.5589
vn 0.9817 -0.0005 -0.1904
vn 0.9930 -0.1134 0.0318
vn 0.8898 -0.3766 0.2578
vn 0.6965 -0.4501 0.5589
vn -0.0000 -0.4342 0.9008
vn 0.2568 -0.3832 0.8872
vn 0.2681 -0.2629 0.9268
vn 0.3388 -0.0691 0.9383
vn 0.3771 0.0531 0.9246
vn 0.4243 0.3383 0.8400
vn -0.3609 0.1935 0.9123
vn -0.3163 0.5525 0.7712
vn -0.4243 0.3383 0.8400
vn -0.3771 0.0531 0.9246
vn -0.5218 0.0681 0.8503
vn -0.3840 -0.2199 0.8968
vn -0.2568 -0.3832 0.8872
vn -0.4890 -0.3012 0.8186
vn -0.4046 -0.5079 0.7605
vn -0.3388 -0.0691 0.9383
vn -0.2681 -0.2629 0.9268
vn -0.0000 0.0814 0.9967
vn 0.2000 -0.1154 0.9730
vn -0.2000 -0.1154 0.9730
vn -0.0000 -0.3233 0.9463
vn -0.0000 -0.5759 0.8175
vn 0.4046 -0.5079 0.7605
vn 0.3609 0.1935 0.9123
vn 0.3840 -0.2199 0.8968
vn 0.6730 0.1510 0.7241
vn 0.5177 0.1622 0.8401
vn 0.6005 0.1694 0.7815
vn -0.6730 0.1510 0.7241
vn -0.3697 0.2380 0.8982
vn -0.3241 0.1999 0.9247
vn -0.5014 0.2436 0.8302
vn -0.2179 0.2410 0.9458
vn 0.3241 0.1999 0.9247
vn 0.5014 0.2436 0.8302
vn 0.2179 0.2410 0.9458
vn -0.7111 0.1711 0.6820
vn 0.3697 0.2380 0.8982
vn -0.7938 0.2389 0.5593
vn -0.6091 0.2228 0.7612
vn -0.5177 0.1622 0.8401
vn 0.6360 -0.1775 0.7510
vn 0.7402 -0.1176 0.6620
vn -0.7402 -0.1176 0.6620
vn -0.7163 -0.3539 0.6014
vn -0.6005 0.1694 0.7815
vn -0.7216 0.1317 0.6797
vn -0.9625 0.1691 0.2121
vn -0.9919 0.0317 0.1228
vn -0.9805 -0.1711 0.0962
vn -0.9079 -0.0154 0.4188
vn -0.8884 -0.2895 0.3563
vn -0.9756 -0.1923 0.1062
vn 0.7216 0.1317 0.6797
vn 0.9298 0.2257 0.2909
vn 0.8614 0.1973 0.4681
vn -0.6360 -0.1775 0.7510
vn -0.8614 0.1973 0.4681
vn -0.8426 0.2076 0.4970
vn 0.9756 -0.1923 0.1062
vn 0.9805 -0.1711 0.0962
vn 0.9079 -0.0154 0.4188
vn 0.8884 -0.2895 0.3563
vn -0.5430 -0.5327 0.6491
vn 0.7163 -0.3538 0.6014
vt 0.557434 0.746185
vt 0.515320 0.746735
vt 0.548187 0.768616
vt 0.596710 0.751190
vt 0.596283 0.784729
vt 0.652161 0.735229
vt 0.654358 0.776978
vt 0.720123 0.724091
vt 0.721924 0.760468
vt 0.789093 0.711426
vt 0.860474 0.733521
vt 0.790283 0.746826
vt 0.792572 0.783112
vt 0.859863 0.770050
vt 0.850861 0.800873
vt 0.927094 0.758026
vt 0.925720 0.791626
vt 0.991821 0.787872
vt 0.927948 0.824768
vt 0.991821 0.823639
vt 0.991821 0.869537
vt 0.913910 0.867584
vt 0.873749 0.827850
vt 0.852722 0.857819
vt 0.839905 0.817322
vt 0.726593 0.791351
vt 0.815582 0.805328
vt 0.775970 0.888153
vt 0.865143 0.912537
vt 0.747284 0.943207
vt 0.991821 0.922150
vt 0.991821 0.970795
vt 0.547089 0.941254
vt 0.695007 0.900299
vt 0.611420 0.896393
vt 0.450531 0.913971
vt 0.539551 0.882874
vt 0.414307 0.881470
vt 0.496826 0.860443
vt 0.478699 0.831879
vt 0.532257 0.824585
vt 0.544250 0.792908
vt 0.330200 0.970795
vt 0.330200 0.923737
vt 0.330200 0.886841
vt 0.330200 0.856628
vt 0.395050 0.846130
vt 0.385925 0.824402
vt 0.445343 0.806183
vt 0.418976 0.731781
vt 0.467072 0.730652
vt 0.463684 0.711609
vt 0.414215 0.712280
vt 0.460449 0.685150
vt 0.411987 0.684052
vt 0.638733 0.701843
vt 0.632263 0.653198
vt 0.692627 0.682312
vt 0.658722 0.814880
vt 0.451599 0.658905
vt 0.330200 0.830841
vt 0.379517 0.795593
vt 0.330200 0.810333
vt 0.380066 0.773407
vt 0.323029 0.794800
vt 0.391418 0.742493
vt 0.318451 0.751770
vt 0.395569 0.695923
vt 0.320862 0.687653
vt 0.406403 0.739868
vt 0.437317 0.749390
vt 0.632690 0.834045
vt 0.594238 0.820007
vt 0.595001 0.728546
vt 0.556671 0.851746
vt 0.556702 0.666321
vt 0.611359 0.674713
vt 0.591339 0.707214
vt 0.364716 0.654724
vt 0.364380 0.683472
vt 0.330200 0.683838
vt 0.329376 0.654480
vt 0.472534 0.746643
vt 0.772308 0.673370
vt 0.492462 0.800262
vt 0.589233 0.689240
vt 0.407654 0.655670
vt 0.777557 0.859467
vt 0.708435 0.865417
vt 0.757446 0.804352
vt 0.713318 0.818115
vt 0.695862 0.841980
vt 0.607239 0.858612
vt 0.817505 0.820282
vt 0.812103 0.843964
vt 0.789917 0.803497
vt 0.836731 0.636719
vt 0.758881 0.642944
vt 0.911041 0.629639
vt 0.991821 0.690796
vt 0.923553 0.696564
vt 0.992950 0.622986
vt 0.857391 0.702698
vt 0.926605 0.724731
vt 0.991821 0.717133
vt 0.669220 0.646271
vt 0.991821 0.750946
vt 0.071747 0.852936
vt 0.071533 0.767822
vt 0.124969 0.767822
vt 0.124969 0.854065
vt 0.178223 0.852936
vt 0.124969 0.892670
vt 0.179779 0.890076
vt 0.142334 0.923737
vt 0.179321 0.917114
vt 0.178375 0.963440
vt 0.221497 0.912842
vt 0.241241 0.956451
vt 0.264282 0.908325
vt 0.071564 0.963440
vt 0.075623 0.994324
vt 0.008728 0.956451
vt 0.028473 0.912842
vt -0.014313 0.908325
vt 0.028473 0.882507
vt -0.010712 0.852142
vt -0.003479 0.777161
vt 0.070190 0.890076
vt 0.107635 0.923737
vt 0.070648 0.917114
vt 0.253418 0.777161
vt 0.260681 0.852142
vt 0.221466 0.882507
vt 0.124969 0.957886
vt 0.178436 0.767822
vt 0.174347 0.994324
vt 0.129120 0.872437
vt 0.082397 0.937378
vt 0.149048 0.943512
vt 0.186310 0.883514
vt 0.225311 0.954315
vt 0.254639 0.901672
vt 0.222321 0.823700
vt 0.160034 0.801636
vt 0.102417 0.792847
vt 0.066223 0.869324
vt -0.001953 0.869354
vt 0.001068 0.793915
vt -0.003662 0.937469
vt 0.440857 0.947327
vt 0.246338 0.945587
vt 0.207550 0.916412
vt 0.433716 0.916260
vt 0.185669 0.878571
vt 0.428223 0.879333
vt 0.180756 0.826416
vt 0.431427 0.829651
vt 0.678162 0.883301
vt 0.679688 0.834198
vt 0.460388 0.783905
vt 0.657898 0.919800
vt 0.838837 0.920105
vt 0.861053 0.878632
vt 0.858978 0.842896
vt 0.834137 0.802521
vt 0.715912 0.790527
vt 0.636993 0.948059
vt 0.805511 0.960052
vt 0.225647 0.776245
s 1
usemtl PikachuDh_PikachuDh.png
f 222/1/222 200/2/200 1/3/1
f 2/4/2 222/1/222 1/3/1
f 2/4/2 1/3/1 30/5/30
f 77/6/77 2/4/2 30/5/30
f 77/6/77 30/5/30 3/7/3
f 4/8/4 77/6/77 3/7/3
f 4/8/4 3/7/3 76/9/76
f 5/10/5 4/8/4 76/9/76
f 6/11/6 156/12/156 7/13/7
f 138/14/138 6/11/6 7/13/7
f 138/14/138 7/13/7 16/15/16
f 148/16/148 138/14/138 16/15/16
f 148/16/148 16/15/16 9/17/9
f 8/18/8 148/16/148 9/17/9
f 8/18/8 9/17/9 11/19/11
f 10/20/10 8/18/8 11/19/11
f 10/20/10 11/19/11 37/21/37
f 12/19/12 10/20/10 37/21/37
f 12/19/12 37/21/37 38/22/38
f 13/23/13 12/19/12 38/22/38
f 13/23/13 38/22/38 14/24/14
f 107/25/107 13/23/13 14/24/14
f 7/13/7 15/26/15 17/27/17
f 16/15/16 7/13/7 17/27/17
f 16/15/16 17/27/17 18/25/18
f 35/23/35 16/15/16 18/25/18
f 35/23/35 18/25/18 19/24/19
f 36/22/36 35/23/35 19/24/19
f 36/22/36 19/24/19 20/28/20
f 22/29/22 36/22/36 20/28/20
f 22/29/22 20/28/20 21/30/21
f 23/31/23 22/29/22 21/30/21
f 23/31/23 21/30/21 25/32/25
f 24/30/24 23/31/23 25/32/25
f 24/30/24 25/32/25 62/33/62
f 105/34/105 24/30/24 62/33/62
f 105/34/105 62/33/62 104/35/104
f 21/30/21 20/28/20 96/34/96
f 31/33/31 21/30/21 96/34/96
f 31/33/31 96/34/96 101/35/101
f 26/36/26 31/33/31 101/35/101
f 26/36/26 101/35/101 27/37/27
f 33/38/33 26/36/26 27/37/27
f 33/38/33 27/37/27 69/39/69
f 28/40/28 33/38/33 69/39/69
f 28/40/28 69/39/69 29/41/29
f 202/42/202 28/40/28 29/41/29
f 202/42/202 29/41/29 30/5/30
f 1/3/1 202/42/202 30/5/30
f 25/32/25 21/30/21 31/33/31
f 60/43/60 25/32/25 31/33/31
f 60/43/60 31/33/31 26/36/26
f 32/44/32 60/43/60 26/36/26
f 32/44/32 26/36/26 33/38/33
f 64/45/64 32/44/32 33/38/33
f 64/45/64 33/38/33 67/46/67
f 63/38/63 64/45/64 67/46/67
f 63/38/63 67/46/67 95/47/95
f 41/40/41 63/38/63 95/47/95
f 41/40/41 95/47/95 34/48/34
f 201/49/201 41/40/41 34/48/34
f 9/17/9 16/15/16 35/23/35
f 11/19/11 9/17/9 35/23/35
f 11/19/11 35/23/35 36/22/36
f 37/21/37 11/19/11 36/22/36
f 37/21/37 36/22/36 23/31/23
f 38/22/38 37/21/37 23/31/23
f 38/22/38 23/31/23 39/29/39
f 106/28/106 38/22/38 39/29/39
f 106/28/106 39/29/39 24/30/24
f 105/34/105 106/28/106 24/30/24
f 104/35/104 62/33/62 61/36/61
f 40/37/40 104/35/104 61/36/61
f 40/37/40 61/36/61 63/38/63
f 85/39/85 40/37/40 63/38/63
f 85/39/85 63/38/63 41/40/41
f 42/41/42 85/39/85 41/40/41
f 42/41/42 41/40/41 43/42/43
f 56/5/56 42/41/42 43/42/43
f 56/5/56 43/42/43 44/3/44
f 218/4/218 56/5/56 44/3/44
f 174/50/174 74/51/74 220/52/220
f 177/53/177 174/50/174 220/52/220
f 177/53/177 220/52/220 45/54/45
f 178/55/178 177/53/177 45/54/45
f 155/56/155 161/57/161 147/58/147
f 88/6/88 155/56/155 147/58/147
f 88/6/88 147/58/147 92/8/92
f 55/7/55 88/6/88 92/8/92
f 55/7/55 92/8/92 46/9/46
f 98/59/98 55/7/55 46/9/46
f 98/59/98 46/9/46 126/26/126
f 205/52/205 54/50/54 47/53/47
f 48/54/48 205/52/205 47/53/47
f 48/54/48 47/53/47 186/55/186
f 145/60/145 48/54/48 186/55/186
f 68/61/68 66/48/66 196/62/196
f 49/63/49 68/61/68 196/62/196
f 49/63/49 196/62/196 82/64/82
f 51/65/51 49/63/49 82/64/82
f 51/65/51 82/64/82 171/66/171
f 50/67/50 51/65/51 171/66/171
f 50/67/50 171/66/171 170/68/170
f 181/69/181 50/67/50 170/68/170
f 51/65/51 50/67/50 83/66/83
f 52/64/52 51/65/51 83/66/83
f 52/64/52 83/66/83 169/70/169
f 198/71/198 52/64/52 169/70/169
f 198/71/198 169/70/169 54/50/54
f 53/51/53 198/71/198 54/50/54
f 53/51/53 54/50/54 205/52/205
f 98/59/98 99/72/99 86/73/86
f 55/7/55 98/59/98 86/73/86
f 55/7/55 86/73/86 56/5/56
f 88/6/88 55/7/55 56/5/56
f 88/6/88 56/5/56 218/4/218
f 90/74/90 88/6/88 218/4/218
f 107/25/107 125/27/125 57/15/57
f 13/23/13 107/25/107 57/15/57
f 13/23/13 57/15/57 58/17/58
f 12/19/12 13/23/13 58/17/58
f 12/19/12 58/17/58 8/18/8
f 10/20/10 12/19/12 8/18/8
f 125/27/125 126/26/126 59/13/59
f 57/15/57 125/27/125 59/13/59
f 62/33/62 25/32/25 60/43/60
f 61/36/61 62/33/62 60/43/60
f 61/36/61 60/43/60 32/44/32
f 63/38/63 61/36/61 32/44/32
f 63/38/63 32/44/32 64/45/64
f 65/12/65 151/11/151 59/13/59
f 46/9/46 65/12/65 59/13/59
f 46/9/46 59/13/59 126/26/126
f 211/74/211 2/4/2 77/6/77
f 70/56/70 211/74/211 77/6/77
f 70/56/70 77/6/77 78/58/78
f 71/57/71 70/56/70 78/58/78
f 28/40/28 193/49/193 66/48/66
f 81/47/81 28/40/28 66/48/66
f 81/47/81 66/48/66 68/61/68
f 67/46/67 81/47/81 68/61/68
f 67/46/67 68/61/68 95/47/95
f 69/39/69 27/37/27 102/75/102
f 29/41/29 69/39/69 102/75/102
f 29/41/29 102/75/102 73/73/73
f 30/5/30 29/41/29 73/73/73
f 30/5/30 73/73/73 3/7/3
f 71/57/71 158/76/158 216/77/216
f 70/56/70 71/57/71 216/77/216
f 70/56/70 216/77/216 212/78/212
f 211/74/211 70/56/70 212/78/212
f 153/79/153 91/80/91 185/81/185
f 139/82/139 153/79/153 185/81/185
f 73/73/73 72/72/72 110/59/110
f 3/7/3 73/73/73 110/59/110
f 3/7/3 110/59/110 76/9/76
f 174/50/174 172/70/172 195/71/195
f 74/51/74 174/50/174 195/71/195
f 74/51/74 195/71/195 209/83/209
f 75/80/75 144/79/144 185/81/185
f 7/13/7 156/12/156 76/9/76
f 15/26/15 7/13/7 76/9/76
f 15/26/15 76/9/76 110/59/110
f 78/58/78 77/6/77 4/8/4
f 119/84/119 78/58/78 4/8/4
f 44/3/44 79/2/79 80/1/80
f 218/4/218 44/3/44 80/1/80
f 81/47/81 67/46/67 33/38/33
f 28/40/28 81/47/81 33/38/33
f 172/70/172 171/66/171 82/64/82
f 195/71/195 172/70/172 82/64/82
f 28/40/28 202/42/202 203/85/203
f 193/49/193 28/40/28 203/85/203
f 50/67/50 181/69/181 187/68/187
f 83/66/83 50/67/50 187/68/187
f 41/40/41 201/49/201 84/85/84
f 43/42/43 41/40/41 84/85/84
f 87/75/87 40/37/40 85/39/85
f 42/41/42 87/75/87 85/39/85
f 86/73/86 87/75/87 42/41/42
f 56/5/56 86/73/86 42/41/42
f 155/56/155 88/6/88 90/74/90
f 89/78/89 155/56/155 90/74/90
f 49/63/49 51/65/51 52/64/52
f 199/62/199 49/63/49 52/64/52
f 68/61/68 49/63/49 199/62/199
f 34/48/34 68/61/68 199/62/199
f 223/77/223 155/56/155 89/78/89
f 224/86/224 223/77/223 89/78/89
f 153/79/153 154/87/154 186/55/186
f 91/80/91 153/79/153 186/55/186
f 94/10/94 65/12/65 46/9/46
f 92/8/92 94/10/94 46/9/46
f 93/84/93 94/10/94 92/8/92
f 147/58/147 93/84/93 92/8/92
f 22/29/22 23/31/23 36/22/36
f 213/86/213 212/78/212 216/77/216
f 38/22/38 106/28/106 14/24/14
f 23/31/23 24/30/24 39/29/39
f 95/47/95 68/61/68 34/48/34
f 198/71/198 53/51/53 191/83/191
f 20/28/20 97/88/97 96/34/96
f 97/88/97 100/89/100 96/34/96
f 126/26/126 114/90/114 98/59/98
f 114/90/114 129/91/129 98/59/98
f 98/59/98 129/91/129 99/72/99
f 129/91/129 128/92/128 99/72/99
f 96/34/96 100/89/100 101/35/101
f 100/89/100 122/93/122 101/35/101
f 103/93/103 87/75/87 99/72/99
f 87/75/87 86/73/86 99/72/99
f 101/35/101 122/93/122 27/37/27
f 122/93/122 102/75/102 27/37/27
f 122/93/122 72/72/72 102/75/102
f 72/72/72 73/73/73 102/75/102
f 18/25/18 113/94/113 19/24/19
f 107/25/107 118/94/118 125/27/125
f 40/37/40 87/75/87 103/93/103
f 104/35/104 40/37/40 103/93/103
f 104/35/104 103/93/103 115/89/115
f 105/34/105 104/35/104 115/89/115
f 105/34/105 115/89/115 116/88/116
f 106/28/106 105/34/105 116/88/116
f 106/28/106 116/88/116 117/95/117
f 14/24/14 106/28/106 117/95/117
f 14/24/14 117/95/117 118/94/118
f 107/25/107 14/24/14 118/94/118
f 72/72/72 108/92/108 109/91/109
f 110/59/110 72/72/72 109/91/109
f 110/59/110 109/91/109 111/90/111
f 15/26/15 110/59/110 111/90/111
f 15/26/15 111/90/111 112/96/112
f 17/27/17 15/26/15 112/96/112
f 17/27/17 112/96/112 113/94/113
f 18/25/18 17/27/17 113/94/113
f 100/89/100 97/88/97 108/92/108
f 124/95/124 108/92/108 97/88/97
f 113/94/113 112/96/112 111/90/111
f 111/90/111 109/91/109 113/94/113
f 108/92/108 124/95/124 113/94/113
f 5/10/5 120/97/120 119/84/119
f 120/97/120 141/98/141 119/84/119
f 121/99/121 135/100/135 134/101/134
f 121/99/121 132/102/132 135/100/135
f 132/102/132 133/99/133 135/100/135
f 103/93/103 99/72/99 128/92/128
f 115/89/115 103/93/103 128/92/128
f 108/92/108 72/72/72 122/93/122
f 100/89/100 108/92/108 122/93/122
f 121/99/121 123/103/123 131/97/131
f 121/99/121 134/101/134 123/103/123
f 125/27/125 118/94/118 127/96/127
f 126/26/126 125/27/125 127/96/127
f 126/26/126 127/96/127 114/90/114
f 19/24/19 113/94/113 124/95/124
f 20/28/20 19/24/19 124/95/124
f 20/28/20 124/95/124 97/88/97
f 108/92/108 113/94/113 109/91/109
f 134/101/134 151/11/151 123/103/123
f 6/11/6 137/101/137 140/103/140
f 6/11/6 130/104/130 137/101/137
f 130/104/130 136/105/136 137/101/137
f 94/10/94 131/97/131 123/103/123
f 94/10/94 93/84/93 131/97/131
f 93/84/93 146/98/146 131/97/131
f 151/11/151 134/101/134 150/104/150
f 134/101/134 136/105/136 150/104/150
f 134/101/134 135/100/135 136/105/136
f 135/100/135 137/101/137 136/105/136
f 135/100/135 133/99/133 137/101/137
f 133/99/133 140/103/140 137/101/137
f 133/99/133 120/97/120 140/103/140
f 120/97/120 5/10/5 140/103/140
f 152/14/152 59/13/59 151/11/151
f 138/14/138 148/16/148 6/11/6
f 5/10/5 6/11/6 140/103/140
f 141/98/141 157/106/157 119/84/119
f 157/106/157 78/58/78 119/84/119
f 150/104/150 149/107/149 142/16/142
f 150/104/150 136/105/136 149/107/149
f 136/105/136 130/104/130 149/107/149
f 119/84/119 4/8/4 5/10/5
f 75/80/75 178/55/178 144/79/144
f 178/55/178 143/87/143 144/79/144
f 128/92/128 114/90/114 127/96/127
f 93/84/93 160/106/160 146/98/146
f 93/84/93 147/58/147 160/106/160
f 147/58/147 161/57/161 160/106/160
f 139/82/139 185/81/185 144/79/144
f 71/57/71 78/58/78 157/106/157
f 65/12/65 94/10/94 151/11/151
f 94/10/94 123/103/123 151/11/151
f 6/11/6 148/16/148 130/104/130
f 148/16/148 149/107/149 130/104/130
f 148/16/148 8/18/8 149/107/149
f 8/18/8 142/16/142 149/107/149
f 8/18/8 58/17/58 142/16/142
f 58/17/58 57/15/57 142/16/142
f 150/104/150 142/16/142 151/11/151
f 142/16/142 152/14/152 151/11/151
f 142/16/142 57/15/57 152/14/152
f 57/15/57 59/13/59 152/14/152
f 145/60/145 186/55/186 154/87/154
f 155/56/155 223/77/223 161/57/161
f 223/77/223 162/76/162 161/57/161
f 143/87/143 178/55/178 227/60/227
f 178/55/178 45/54/45 227/60/227
f 6/11/6 5/10/5 156/12/156
f 5/10/5 76/9/76 156/12/156
f 118/94/118 117/95/117 127/96/127
f 128/92/128 127/96/127 115/89/115
f 116/88/116 115/89/115 127/96/127
f 117/95/117 116/88/116 127/96/127
f 129/91/129 114/90/114 128/92/128
usemtl PikachuMouthDh_PikachuMouthDh.png
f 176/108/176 75/109/75 185/110/185
f 164/111/164 176/108/176 185/110/185
f 164/111/164 185/110/185 165/112/165
f 184/113/184 164/111/164 165/112/165
f 184/113/184 165/112/165 166/114/166
f 182/115/182 184/113/184 166/114/166
f 182/115/182 166/114/166 167/116/167
f 187/117/187 182/115/182 167/116/167
f 187/117/187 167/116/167 168/118/168
f 169/119/169 187/117/187 168/118/168
f 169/119/169 168/118/168 54/120/54
f 170/121/170 171/122/171 172/123/172
f 173/124/173 170/121/170 172/123/172
f 173/124/173 172/123/172 174/125/174
f 175/126/175 173/124/173 174/125/174
f 175/126/175 174/125/174 177/127/177
f 176/108/176 175/126/175 177/127/177
f 176/108/176 177/127/177 178/128/178
f 75/109/75 176/108/176 178/128/178
f 176/108/176 164/111/164 184/113/184
f 180/129/180 176/108/176 184/113/184
f 180/129/180 184/113/184 183/130/183
f 179/131/179 180/129/180 183/130/183
f 179/131/179 183/130/183 170/121/170
f 173/124/173 179/131/179 170/121/170
f 165/112/165 186/132/186 47/133/47
f 188/134/188 165/112/165 47/133/47
f 188/134/188 47/133/47 54/120/54
f 168/118/168 188/134/188 54/120/54
f 181/135/181 170/121/170 183/130/183
f 182/115/182 181/135/181 183/130/183
f 182/115/182 183/130/183 184/113/184
f 175/126/175 176/108/176 180/129/180
f 179/131/179 175/126/175 180/129/180
f 165/112/165 185/110/185 91/136/91
f 186/132/186 165/112/165 91/136/91
f 188/134/188 168/118/168 167/116/167
f 166/114/166 188/134/188 167/116/167
f 179/131/179 173/124/173 175/126/175
f 182/115/182 187/117/187 181/135/181
f 83/137/83 187/117/187 169/119/169
f 188/134/188 166/114/166 165/112/165
usemtl PikachuEyeDh_PikachuEyeDh.png
f 204/138/204 193/139/193 203/140/203
f 189/141/189 43/142/43 84/140/84
f 44/143/44 43/142/43 189/141/189
f 79/144/79 190/138/190 191/145/191
f 190/138/190 198/146/198 191/145/191
f 202/142/202 1/143/1 192/141/192
f 194/147/194 193/139/193 204/138/204
f 196/148/196 194/147/194 82/149/82
f 194/147/194 195/146/195 82/149/82
f 190/138/190 189/141/189 84/140/84
f 190/138/190 79/144/79 189/141/189
f 79/144/79 44/143/44 189/141/189
f 194/147/194 196/148/196 193/139/193
f 201/139/201 190/138/190 84/140/84
f 201/139/201 197/147/197 190/138/190
f 197/147/197 198/146/198 190/138/190
f 198/146/198 197/147/197 52/149/52
f 197/147/197 199/148/199 52/149/52
f 197/147/197 201/139/201 199/148/199
f 196/148/196 66/150/66 193/139/193
f 1/143/1 200/144/200 192/141/192
f 201/139/201 34/150/34 199/148/199
f 202/142/202 192/141/192 203/140/203
f 192/141/192 204/138/204 203/140/203
f 192/141/192 200/144/200 204/138/204
f 200/144/200 209/145/209 204/138/204
f 195/146/195 204/138/204 209/145/209
f 195/146/195 194/147/194 204/138/204
usemtl PikachuHohoDh_PikachuHohoDh.png
f 79/151/79 191/152/191 53/153/53
f 217/154/217 79/151/79 53/153/53
f 217/154/217 53/153/53 205/155/205
f 206/156/206 217/154/217 205/155/205
f 206/156/206 205/155/205 48/157/48
f 228/158/228 206/156/206 48/157/48
f 220/155/220 74/153/74 210/154/210
f 207/156/207 220/155/220 210/154/210
f 207/156/207 210/154/210 214/159/214
f 208/158/208 207/156/207 214/159/214
f 208/158/208 214/159/214 215/160/215
f 159/161/159 208/158/208 215/160/215
f 74/153/74 209/152/209 200/151/200
f 210/154/210 74/153/74 200/151/200
f 210/154/210 200/151/200 221/162/221
f 214/159/214 210/154/210 221/162/221
f 214/159/214 221/162/221 211/163/211
f 212/164/212 214/159/214 211/163/211
f 214/159/214 212/164/212 213/165/213
f 215/160/215 214/159/214 213/165/213
f 215/160/215 213/165/213 216/166/216
f 158/167/158 215/160/215 216/166/216
f 219/162/219 79/151/79 217/154/217
f 225/159/225 219/162/219 217/154/217
f 225/159/225 217/154/217 206/156/206
f 228/158/228 225/159/225 206/156/206
f 80/168/80 79/151/79 219/162/219
f 218/169/218 80/168/80 219/162/219
f 211/163/211 221/162/221 2/169/2
f 218/169/218 219/162/219 90/163/90
f 90/163/90 219/162/219 225/159/225
f 220/155/220 207/156/207 45/157/45
f 207/156/207 208/158/208 45/157/45
f 89/164/89 90/163/90 225/159/225
f 89/164/89 225/159/225 224/165/224
f 2/169/2 221/162/221 222/168/222
f 221/162/221 200/151/200 222/168/222
f 224/165/224 226/160/226 223/166/223
f 224/165/224 225/159/225 226/160/226
f 225/159/225 228/158/228 226/160/226
f 208/158/208 159/161/159 227/170/227
f 45/157/45 208/158/208 227/170/227
f 226/160/226 228/158/228 163/161/163
f 162/167/162 226/160/226 163/161/163
f 223/166/223 226/160/226 162/167/162
f 163/161/163 228/158/228 145/170/145
f 159/161/159 215/160/215 158/167/158
f 228/158/228 48/157/48 145/170/145
